<?xml version="1.0" encoding="utf-8"?>
<!-- Generator: Adobe Illustrator 28.0.0, SVG Export Plug-In . SVG Version: 6.00 Build 0)  -->
<svg version="1.1" id="icon" xmlns="http://www.w3.org/2000/svg" xmlns:xlink="http://www.w3.org/1999/xlink" x="0px" y="0px"
	 viewBox="0 0 24 24" style="enable-background:new 0 0 24 24;" xml:space="preserve">
<path d="M20.068,13.296c0.646,0.944,0.857,2.121,0.58,3.23l-1.679,6.716C18.856,23.697,18.449,24,18.001,24
	c-0.08,0-0.162-0.01-0.243-0.03c-0.536-0.134-0.862-0.677-0.728-1.212l1.679-6.716c0.141-0.563,0.037-1.137-0.291-1.615
	c-0.327-0.479-0.825-0.782-1.401-0.854l-4.641-0.58C11.876,12.93,11.5,12.504,11.5,12V4c0-0.552-0.448-1-1-1s-1,0.448-1,1v12.343
	c0,0.414-0.255,0.785-0.642,0.934c-0.39,0.149-0.824,0.042-1.102-0.265l-2.85-3.169c-0.539-0.6-1.447-0.667-2.069-0.155
	l-0.253,0.207l6.223,8.516c0.325,0.446,0.229,1.071-0.218,1.397s-1.071,0.228-1.397-0.218l-6.222-8.516
	c-0.624-0.855-0.473-2.052,0.344-2.725l0.253-0.207c1.452-1.195,3.571-1.034,4.827,0.363L7.5,13.735V4c0-1.654,1.346-3,3-3
	s3,1.346,3,3v7.117l3.765,0.471C18.4,11.729,19.422,12.353,20.068,13.296z M23.414,2.586l-2.293-2.293
	c-0.391-0.391-1.023-0.391-1.414,0s-0.391,1.023,0,1.414L21,3h-5c-0.553,0-1,0.447-1,1s0.447,1,1,1h5l-1.293,1.293
	c-0.391,0.391-0.391,1.023,0,1.414C19.902,7.902,20.158,8,20.414,8s0.512-0.098,0.707-0.293l2.293-2.293
	C24.194,4.635,24.194,3.365,23.414,2.586z"/>
</svg>
